<?xml version="1.0" encoding="UTF-8"?>
<svg width="400px" height="400px" viewBox="0 0 400 400" version="1.1" xmlns="http://www.w3.org/2000/svg" xmlns:xlink="http://www.w3.org/1999/xlink">
    <!-- Generator: Sketch 61 (89581) - https://sketch.com -->
    <title>Question / Indigo / Question</title>
    <desc>Created with Sketch.</desc>
    <g id="Question-/-Indigo-/-Question" stroke="none" stroke-width="1" fill="none" fill-rule="evenodd">
        <path d="M184.222763,229.68904 L208.204758,229.68904 L208.204758,226.608784 L208.209895,225.926709 C208.312609,219.32033 210.00458,215.625903 217.665545,209.667375 L225.586204,203.506863 L226.419817,202.846449 C239.397413,192.493247 248.468107,181.770888 248.468107,163.243514 C248.468107,138.381446 231.966734,121 202.924319,121 C170.801647,121 151,138.601464 151,170.064081 L176.302104,170.064081 C176.302104,151.362525 187.083001,143.00183 201.824227,143.00183 C213.925234,143.00183 222.285929,151.142507 222.285929,164.123587 C222.285929,175.124502 218.105581,182.385106 208.424776,189.425691 L198.303934,196.906314 C185.542873,206.3671 184.222763,214.067741 184.222763,227.268839 L184.222763,229.68904 Z M196.103751,280.513268 C185.762891,280.513268 177.622214,271.932554 177.622214,261.811712 C177.622214,251.69087 185.762891,243.330175 196.103751,243.330175 C206.444612,243.330175 214.805307,251.69087 214.805307,261.811712 C214.805307,271.932554 206.444612,280.513268 196.103751,280.513268 Z M200,54 C161.250201,54 124.323865,69.2044754 96.7640633,96.743493 C39.7493876,153.76391 39.7474478,246.234149 96.7520834,303.244531 C124.323027,330.794688 161.249037,346 200,346 C238.749799,346 275.676135,330.795525 303.235937,303.256507 C360.250612,246.23609 360.252552,153.765851 303.247917,96.7554689 C275.676973,69.2053124 238.750963,54 200,54 Z M200,76 C232.688806,76 264.090604,88.7286501 287.690783,112.311034 C336.10396,160.729091 336.10396,239.270909 287.685457,287.694291 C264.090604,311.27135 232.688806,324 200,324 C167.311194,324 135.909396,311.27135 112.309217,287.688966 C63.89604,239.270909 63.89604,160.729091 112.314543,112.305709 C135.909396,88.7286501 167.311194,76 200,76 Z" id="Question" fill="#5514B4" fill-rule="nonzero"></path>
    </g>
</svg>