<svg xmlns="http://www.w3.org/2000/svg" width="23.868" height="22.09" viewBox="0 0 23.868 22.09"><defs><style>.a{fill:#6400aa;}</style></defs><g transform="translate(0 -27.797)"><g transform="translate(-0.001 27.798)"><path class="a" d="M23.614,36.679,12.3,27.924a.593.593,0,0,0-.733,0L.253,36.679a.68.68,0,0,0-.134.916.6.6,0,0,0,.867.142l10.948-8.471,10.948,8.471a.6.6,0,0,0,.366.127.609.609,0,0,0,.5-.268A.68.68,0,0,0,23.614,36.679Z" transform="translate(0.001 -27.798)"/></g><g transform="translate(2.781 37.488)"><path class="a" d="M74.148,232.543a.634.634,0,0,0-.61.655v10.432H68.656v-5.695a3.059,3.059,0,1,0-6.1,0v5.695H57.672V233.2a.612.612,0,1,0-1.22,0v11.088a.634.634,0,0,0,.61.655h6.1a.63.63,0,0,0,.608-.6c0-.015,0-.032,0-.051v-6.35a1.835,1.835,0,1,1,3.662,0v6.35c0,.019,0,.035,0,.05a.63.63,0,0,0,.608.6h6.1a.634.634,0,0,0,.61-.655V233.2A.634.634,0,0,0,74.148,232.543Z" transform="translate(-56.452 -232.543)"/></g></g></svg>