<?xml version="1.0" encoding="UTF-8"?>
<svg width="600px" height="600px" viewBox="0 0 400 400" version="1.1" xmlns="http://www.w3.org/2000/svg" xmlns:xlink="http://www.w3.org/1999/xlink">
    <!-- Generator: Sketch 61 (89581) - https://sketch.com -->
    <title>Refresh / White / Refresh</title>
    <desc>Created with Sketch.</desc>
    <g id="Refresh-/-White-/-Refresh" stroke="none" stroke-width="1" fill="none" fill-rule="evenodd">
        <path d="M168.153017,58.7172114 C206.141397,47.8400771 246.067935,52.6966647 279.932149,71.4679053 C313.796363,90.2391459 339.072825,121.52517 349.980681,159.510078 C352.253743,167.438437 353.829951,175.401822 354.745598,183.334747 C362.842376,253.483069 319.287953,321.249706 249.177252,341.356793 C211.188872,352.233927 171.262335,347.37734 137.398121,328.606099 C118.939384,318.374255 102.864571,304.303514 90.3269359,287.310831 C101.34783,276.486793 107.111631,270.825946 107.618339,270.328289 L107.654968,270.292314 C118.402847,285.744801 132.583137,298.496613 149.033552,307.615226 C177.388325,323.332534 210.761221,327.391949 242.565924,318.285375 C300.530538,301.661671 336.803955,246.094928 331.120802,188.150087 C330.402192,180.82322 329.012761,173.458331 326.911539,166.129343 C317.779012,134.326745 296.651492,108.176086 268.296718,92.4587783 C239.941944,76.7414706 206.569048,72.6820553 174.764345,81.7886291 C136.40443,92.7898913 107.328316,120.997787 93.8686965,155.818282 C88.5573131,169.559012 85.6777604,184.329469 85.6191851,199.478645 L108.375,176.698704 L126.05,194.398704 L73.025,247.423704 L20,194.398704 L37.675,176.698704 L60.525,199.573704 L61.6158997,199.57331 C61.6630809,180.528201 65.4388629,161.983273 72.4030949,144.841569 C88.8713853,104.306651 123.168807,71.6182582 168.153017,58.7172114 Z" id="Refresh" fill="#FFFFFF" fill-rule="nonzero"></path>
    </g>
</svg>
