<?xml version="1.0" encoding="UTF-8"?>
<svg width="400px" height="400px" viewBox="0 0 400 400" version="1.1" xmlns="http://www.w3.org/2000/svg" xmlns:xlink="http://www.w3.org/1999/xlink">
    <!-- Generator: Sketch 61 (89581) - https://sketch.com -->
    <title>Update / White / Update</title>
    <desc>Created with Sketch.</desc>
    <g id="Update-/-White-/-Update" stroke="none" stroke-width="1" fill="none" fill-rule="evenodd">
        <path d="M336.612305,153 L389.637305,206.025 L371.962305,223.725 L349.112305,200.85 L347.97386,200.849905 C347.839583,238.420463 333.390358,275.873029 304.917854,304.34791 C276.965807,332.278398 239.690751,347.3875 200.971963,347.3875 C162.253176,347.3875 124.978119,332.278398 97.0224445,304.344283 C91.1906347,298.511986 86.6468017,293.080315 82,286.585937 C82,286.585937 98.9435547,269.773242 98.9435547,269.773242 C103.1242,275.833075 108.599153,281.979416 113.990088,287.370802 C137.395781,310.758444 168.552417,323.3875 200.971963,323.3875 C233.391509,323.3875 264.548145,310.758444 287.950211,287.374429 C311.716509,263.606145 323.804428,232.354566 323.973394,200.990775 L301.262305,223.725 L283.587305,206.025 L336.612305,153 Z M200.002841,53 C238.721629,53 275.996686,68.1091021 303.95236,96.0432173 C309.78417,101.875514 314.328003,107.307185 318.974805,113.801563 C318.974805,113.801563 302.03125,130.614258 302.03125,130.614258 C297.850605,124.554425 292.375652,118.408084 286.984717,113.016698 C263.579023,89.6290564 232.422387,77 200.002841,77 C167.583296,77 136.426659,89.6290564 113.024594,113.013071 C89.2582954,136.781355 77.1703769,168.032934 77.0014102,199.396725 L99.7125,176.6625 L117.3875,194.3625 L64.3625,247.3875 L11.3375,194.3625 L29.0125,176.6625 L51.8625,199.5375 L53.0009446,199.537595 C53.1352221,161.967037 67.584447,124.514471 96.056951,96.0395901 C124.008997,68.1091021 161.284054,53 200.002841,53 Z" id="Update" fill="#FFFFFF" fill-rule="nonzero"></path>
    </g>
</svg>
