<svg id="active-svg-sprite" xmlns="http://www.w3.org/2000/svg" xmlns:xlink="http://www.w3.org/1999/xlink"><defs><symbol viewBox="0 0 32 32" id="icon-add-circle"><circle fill-rule="evenodd" clip-rule="evenodd" cx="16" cy="16" r="15"></circle><path d="M16 9.2v13.6M22.8 16H9.2"></path></symbol><symbol viewBox="0 0 32 32" id="icon-angle-down"><path d="M2.1 9L16 23 29.9 9"></path></symbol><symbol viewBox="0 0 32 32" id="icon-angle-left"><path d="M23 2.1L9 16l14 13.9"></path></symbol><symbol viewBox="0 0 32 32" id="icon-angle-right"><path d="M9 29.9L23 16 9 2.1"></path></symbol><symbol viewBox="0 0 32 32" id="icon-angle-up"><path d="M29.9 23L16 9 2.1 23"></path></symbol><symbol viewBox="0 0 32 32" id="icon-arrow-down"><path d="M6.7 19.7L16 30l9.3-10.3"></path><path d="M16 30V1.3"></path></symbol><symbol viewBox="0 0 32 32" id="icon-arrow-down-sorting"><path d="M1.5 16L16 30.5 30.5 16z"></path><path d="M12.4 1.5h7.2V16h-7.2z"></path></symbol><symbol viewBox="0 0 32 32" id="icon-arrow-left"><path d="M12 6.4L1.6 15.7 12 24.9"></path><path d="M1.6 15.6h28.8"></path></symbol><symbol viewBox="0 0 32 32" id="icon-arrow-right"><path d="M20 24.9l10.4-9.3L20 6.4"></path><path fill="none" d="M30.4 15.7H1.6"></path></symbol><symbol viewBox="0 0 32 32" id="icon-bookmark"><path d="M7 1h18c1.1 0 2 .9 2 2v28l-11-6-11 6V3c0-1.1.9-2 2-2z"></path></symbol><symbol viewBox="0 0 32 32" id="icon-bookmark-filled"><path d="M25 0H7C5.3 0 4 1.3 4 3v29.7l12-6.5 12 6.5V3c0-1.7-1.3-3-3-3z"></path></symbol><symbol viewBox="0 0 32 32" id="icon-close"><g fill="none"><path d="M30.9 31L1 1.1M1.1 30.9L31 1"></path></g></symbol><symbol viewBox="0 0 32 32" id="icon-dashboard"><circle fill="none" cx="16" cy="16" r="15"></circle><path fill="none" d="M25.5 16c0-5.3-4.3-9.5-9.5-9.5S6.5 10.7 6.5 16"></path><circle fill="none" cx="16" cy="21.5" r="2.7"></circle><path fill="none" d="M16 18.7v-8.2"></path></symbol><symbol viewBox="0 0 32 32" id="icon-filter"><g fill="none"><path d="M28.3 5.1H31h-2.7c0 2.3-1.8 4.1-4.1 4.1s-4.1-1.8-4.1-4.1H1h19.1c0-2.3 1.8-4.1 4.1-4.1s4.1 1.8 4.1 4.1zM20.1 16H31 20.1c0 2.3-1.8 4.1-4.1 4.1s-4.1-1.8-4.1-4.1H1h10.9c0-2.3 1.8-4.1 4.1-4.1s4.1 1.8 4.1 4.1zM11.9 26.9H31 11.9c0 2.3-1.8 4.1-4.1 4.1s-4.1-1.8-4.1-4.1H1h2.7c0-2.3 1.8-4.1 4.1-4.1s4.1 1.8 4.1 4.1z"></path></g></symbol><symbol viewBox="0 0 32 32" id="icon-grid"><path d="M10 13H6c-1.7 0-3-1.4-3-3V6c0-1.7 1.3-3 3-3h4c1.6 0 3 1.3 3 3v4c0 1.6-1.4 3-3 3zM26 13h-4c-1.6 0-3-1.4-3-3V6c0-1.7 1.4-3 3-3h4c1.6 0 3 1.3 3 3v4c0 1.6-1.4 3-3 3zM10 29H6c-1.7 0-3-1.4-3-3v-4c0-1.6 1.3-3 3-3h4c1.6 0 3 1.4 3 3v4c0 1.6-1.4 3-3 3zM26 29h-4c-1.6 0-3-1.4-3-3v-4c0-1.6 1.4-3 3-3h4c1.6 0 3 1.4 3 3v4c0 1.6-1.4 3-3 3z"></path></symbol><symbol viewBox="0 0 32 32" id="icon-list"><circle cx="3.8" cy="6.2" r="1.8"></circle><path d="M28.5 8.1H13.2c-.8 0-1.5-.7-1.5-1.5V6c0-.8.7-1.5 1.5-1.5h15.3c.8 0 1.5.7 1.5 1.5v.7c0 .8-.7 1.4-1.5 1.4z"></path><circle cx="3.8" cy="15.9" r="1.8"></circle><path d="M28.5 17.8H13.2c-.8 0-1.5-.7-1.5-1.5v-.7c0-.8.7-1.5 1.5-1.5h15.3c.8 0 1.5.7 1.5 1.5v.7c0 .9-.7 1.5-1.5 1.5z"></path><g><circle cx="3.8" cy="25.7" r="1.8"></circle><path d="M28.5 27.6H13.2c-.8 0-1.5-.7-1.5-1.5v-.7c0-.8.7-1.5 1.5-1.5h15.3c.8 0 1.5.7 1.5 1.5v.7c0 .8-.7 1.5-1.5 1.5z"></path></g></symbol><symbol viewBox="0 0 32 32" id="icon-logout"><path d="M23.4 23.6L31 16l-7.6-7.6M31 16H6.4M19 21.8v4.3c0 1.3-1.1 2.4-2.4 2.4H3.4c-1.3 0-2.4-1.1-2.4-2.4V5.8c0-1.3 1.1-2.4 2.4-2.4h13.1c1.3 0 2.4 1.1 2.4 2.4v4.3"></path></symbol><symbol viewBox="0 0 32 32" id="icon-new-order"><g fill="none"><path d="M4.1 20.6v6.5C4.1 29.3 5.9 31 8 31h16.7c2.1 0 3.9-1.7 3.9-3.9v-18l-7-8.1H8C5.9 1 4.1 2.7 4.1 4.9v2.2"></path><path d="M21.3 1v7.1c0 1.1.5 1 1.5 1h5.7M1.8 14.3l10.5 10.5 4.7 1.3c.7.1 1-.2.9-.9l-1.3-4.7L6.1 10c-.5-.6-1.2-.5-1.7 0l-2.6 2.6c-.5.5-.5 1.2 0 1.7zM12.4 24.9l4.3-4.3M4.5 17l4.3-4.3M9.4 10.2h8.1M7.4 6.1h10.1"></path></g></symbol><symbol viewBox="0 0 32 32" id="icon-new-plan"><g fill="none"><path d="M21.4 5.6c1.5.5 2.5 1 3.1 1.5.5.5 1 1.6 1.5 3.1M17 5.6H1.5V31h24.4V13.9M8.2 17.8h10.7M8.2 12.4h10.7"></path><path d="M17.1 30.4v-6.7H9.5v6.7M22.9 1c2.5.8 4.2 1.7 5.1 2.5s1.7 2.6 2.5 5.1"></path></g></symbol><symbol viewBox="0 0 32 32" id="icon-notification"><path d="M2.7 26.8c0-5.4 3.8-6.8 3.8-11.8 0-9.6 5.6-10.8 6.8-11.4 0 0 .4-2.6 2.7-2.6s2.7 2.6 2.7 2.6c1.2.6 6.8 1.8 6.8 11.4 0 5 3.8 6.5 3.8 11.8H2.7zM19.9 26.8v.8c0 1.9-1.5 3.4-3.4 3.4h-.9c-1.9 0-3.4-1.5-3.4-3.4v-.8"></path></symbol><symbol viewBox="0 0 32 32" id="icon-notification-filled"><path d="M30.3 26.8c0-3-1.1-4.9-2.1-6.6-.9-1.6-1.7-3-1.7-5.2 0-9.3-5-11.4-6.9-12.1C19.2 1.7 18.1 0 16 0s-3.2 1.7-3.6 2.9c-1.9.7-6.9 2.8-6.9 12.1 0 2.2-.8 3.6-1.7 5.2-1 1.7-2.1 3.6-2.1 6.6v1h9.5c.1 2.4 2 4.2 4.4 4.2h.9c2.4 0 4.3-1.8 4.4-4.2h9.4v-1z"></path></symbol><symbol viewBox="0 0 32 32" id="icon-pencil"><path fill-rule="evenodd" clip-rule="evenodd" d="M30.3 6.4l-4.7-4.7c-.9-.9-2.2-1-3.1 0L3.4 20.8 1 29.4c-.3 1.2.4 1.8 1.6 1.6l8.6-2.4L30.3 9.5c.9-.9.9-2.2 0-3.1z"></path><path d="M3.4 20.8l7.8 7.8M17.6 6.6l7.8 7.8"></path></symbol><symbol viewBox="0 0 32 32" id="icon-pin"><g fill="none"><path d="M16 31c6.7-10.5 10-17.2 10-20 0-4.2-3.2-10-10-10S6 6.8 6 11c0 2.8 3.3 9.5 10 20z"></path><circle cx="16" cy="11" r="3.8"></circle></g></symbol><symbol viewBox="0 0 50 50" id="icon-pin-femtocell"><path d="M25 46.6c-9.867-15.144-14.8-24.744-14.8-28.8 0-6.084 4.674-14.4 14.8-14.4 10.126 0 14.8 8.316 14.8 14.4 0 4.056-4.933 13.656-14.8 28.8zm-2.278-35.64h-7.008a.415.415 0 0 0-.304.128.415.415 0 0 0-.128.304v1.136c0 .117.042.219.128.304a.415.415 0 0 0 .304.128h4.416l-2.24 2.352a3.023 3.023 0 0 0-.232.264.52.52 0 0 0-.12.328v1.136c0 .117.042.219.128.304a.415.415 0 0 0 .304.128h1.328c.65 0 1.176.104 1.576.312.4.208.6.552.6 1.032s-.2.85-.6 1.112c-.4.261-.926.392-1.576.392-.384 0-.71-.027-.976-.08a2.553 2.553 0 0 1-.664-.216 1.576 1.576 0 0 1-.424-.304 1.485 1.485 0 0 1-.256-.36 1.468 1.468 0 0 0-.216-.296.358.358 0 0 0-.264-.104h-1.264a.458.458 0 0 0-.312.12.354.354 0 0 0-.12.312c.032.341.144.688.336 1.04.192.352.472.667.84.944.368.277.826.504 1.376.68.549.176 1.197.264 1.944.264.618 0 1.192-.08 1.72-.24.528-.16.986-.39 1.376-.688.389-.299.693-.664.912-1.096.218-.432.328-.925.328-1.48 0-.459-.075-.875-.224-1.248a2.79 2.79 0 0 0-.64-.968 3.307 3.307 0 0 0-1-.664 4.821 4.821 0 0 0-1.304-.352l2.336-2.464c.074-.075.152-.163.232-.264a.52.52 0 0 0 .12-.328v-1.136a.415.415 0 0 0-.128-.304.415.415 0 0 0-.304-.128zm2.48 4.144c-.011.203-.019.427-.024.672a34.61 34.61 0 0 0 .024 2.176c.021.64.136 1.23.344 1.768.208.539.509 1 .904 1.384.394.384.89.683 1.488.896.597.213 1.301.32 2.112.32.81 0 1.52-.11 2.128-.328.608-.219 1.114-.523 1.52-.912.405-.39.709-.853.912-1.392a4.983 4.983 0 0 0 .304-1.768v-1.76a.415.415 0 0 0-.128-.304.415.415 0 0 0-.304-.128h-3.68a.415.415 0 0 0-.304.128.415.415 0 0 0-.128.304v1.136c0 .117.042.219.128.304a.415.415 0 0 0 .304.128h1.952v.128c0 .459-.067.845-.2 1.16a1.9 1.9 0 0 1-.56.76 2.25 2.25 0 0 1-.856.416 4.35 4.35 0 0 1-1.088.128c-.8 0-1.44-.2-1.92-.6-.48-.4-.736-1.043-.768-1.928-.022-.405-.032-.84-.032-1.304 0-.464.01-.899.032-1.304.032-.725.288-1.304.768-1.736.48-.432 1.12-.648 1.92-.648.48 0 .88.061 1.2.184.32.123.578.261.776.416.197.155.341.304.432.448.09.144.146.237.168.28a.594.594 0 0 0 .152.184.42.42 0 0 0 .28.088h1.296c.117 0 .221-.04.312-.12.09-.08.13-.184.12-.312-.022-.245-.104-.547-.248-.904-.144-.357-.395-.704-.752-1.04-.358-.336-.838-.624-1.44-.864-.603-.24-1.368-.36-2.296-.36-.79 0-1.48.104-2.072.312a4.195 4.195 0 0 0-1.496.88 3.767 3.767 0 0 0-.928 1.36 5.097 5.097 0 0 0-.352 1.752z" fill="#111" fill-rule="evenodd"></path></symbol><symbol viewBox="0 0 50 50" id="icon-pin-huawei"><path d="M25 46.6c-9.867-15.144-14.8-24.744-14.8-28.8 0-6.084 4.674-14.4 14.8-14.4 10.126 0 14.8 8.316 14.8 14.4 0 4.056-4.933 13.656-14.8 28.8zm-1.757-26.179s.044-.035.02-.093h.002C20.272 13.806 16.18 8.86 16.18 8.86s-2.228 2.109-2.07 4.221c.086 1.6 1.29 2.545 1.29 2.545 1.944 1.89 6.646 4.274 7.738 4.814.014.007.072.024.105-.018zm-.668 1.66c-.02-.072-.101-.072-.101-.072v-.004l-7.68.284c.833 1.57 2.237 2.79 3.698 2.416 1.01-.265 3.292-1.95 4.047-2.52l-.002-.003c.058-.055.038-.1.038-.1zm.164-.834c.04-.06-.028-.115-.028-.115h.001c-3.5-2.318-10.284-5.873-10.284-5.873-.617 1.873.214 3.38.214 3.38.864 1.794 2.514 2.337 2.514 2.337a4.922 4.922 0 0 0 1.524.328c.12.02 4.742.002 5.98-.003.052 0 .079-.054.079-.054zm.41-15.847c-.346.032-1.274.244-1.274.244-2.094.542-2.589 2.446-2.589 2.446-.382 1.199.01 2.515.01 2.515.699 3.108 4.137 8.215 4.877 9.287.051.054.094.034.094.034.08-.021.074-.097.074-.097C25.478 8.425 23.148 5.4 23.148 5.4zm2.917 14.522c.075.031.115-.043.115-.043h.003c.756-1.1 4.175-6.178 4.873-9.274 0 0 .376-1.501.01-2.515 0 0-.516-1.934-2.614-2.446 0 0-.604-.153-1.244-.244 0 0-2.344 3.026-1.205 14.435h.002c.008.074.06.087.06.087zm1.792 2.085s-.07.009-.088.063c0 0-.016.072.03.109v.002c.734.557 2.964 2.2 4.039 2.522 0 0 1.985.712 3.712-2.414l-7.693-.284v.002zm9.712-6.748s-6.773 3.563-10.277 5.877l.002.002s-.063.04-.042.113c0 0 .034.06.083.06v.001c1.252.002 6 .006 6.121-.014 0 0 .615-.025 1.37-.31 0 0 1.69-.527 2.566-2.405 0 0 .782-1.532.177-3.324zm-10.634 5.169s.053.04.105.009c1.123-.555 5.798-2.926 7.734-4.808 0 0 1.224-.98 1.289-2.556.14-2.188-2.068-4.214-2.068-4.214s-4.087 4.93-7.085 11.445h.002s-.034.075.023.124z" fill="#111" fill-rule="evenodd"></path></symbol><symbol viewBox="0 0 50 50" id="icon-pin-nokia"><path d="M25 46.6c-9.867-15.144-14.8-24.744-14.8-28.8 0-6.084 4.674-14.4 14.8-14.4 10.126 0 14.8 8.316 14.8 14.4 0 4.056-4.933 13.656-14.8 28.8zm-5.684-22.09V13.795l8.31 10.713H34.6V10.4h-4.116v10.533L22.318 10.4H15.2v14.11h4.116z" fill="#111" fill-rule="evenodd"></path></symbol><symbol viewBox="0 0 50 50" id="icon-pin-parallel"><path d="M12.68 25.568h.115c1.09 0 2.181.006 3.272-.008.135-.002.36-.083.391-.176.274-.849.514-1.708.78-2.619H11.46c-.13-.33-.25-.65-.361-.958h5.563c.849 0 .851.001 1.098-.83.189-.632.37-1.267.577-1.975h-8.021a7.282 7.282 0 0 1-.115-1.133c4.457 0 8.914.001 13.37-.002 1.2 0 2.4.019 3.598-.034 3.784-.168 6.669-2.84 7.167-6.602.232-1.751-.656-3.115-2.263-3.433a6.933 6.933 0 0 0-1.3-.111c-2.55-.015-5.1-.014-7.649-.019h-.427l-1.719 6.163c1.171 0 2.329.007 3.486-.011.097-.002.241-.15.279-.258.305-.888.604-1.778.875-2.677.092-.305.242-.399.551-.387.626.024 1.256-.02 1.88.015.555.032 1.115.09 1.653.219.528.125.774.489.765 1.024-.013.715-.227 1.366-.723 1.905-.794.861-1.775 1.265-2.946 1.264-5.425-.006-10.85-.003-16.274-.003C11.738 9.39 16.405 3.4 25 3.4c10.126 0 14.8 8.316 14.8 14.4 0 4.056-4.934 13.656-14.8 28.8-5.828-8.945-9.935-15.956-12.32-21.032zM21.68 7.6H15.3l-.788 2.795c.12.017.197.038.274.038 1.909.002 3.818-.004 5.727.007.27.002.344-.13.408-.347.246-.833.506-1.662.76-2.493zm-4.007 17.918c1.365 0 2.685-.01 4.005.008.3.004.386-.1.445-.375.305-1.41.635-2.813.956-4.218l.45-1.973c-1.232 0-2.4-.006-3.57.012-.092.002-.227.161-.265.273-.333.993-.65 1.99-.97 2.987l-1.051 3.286zm-6.425-11.487c2.827 0 5.564.002 8.3-.008.095 0 .25-.093.275-.175.263-.85.506-1.708.772-2.619h-2.428c-1.908 0-3.815-.003-5.723.007-.137 0-.366.071-.396.16-.28.849-.524 1.708-.8 2.635z" fill="#111" fill-rule="evenodd"></path></symbol><symbol viewBox="0 0 32 32" id="icon-search"><circle cx="13.5" cy="13.3" r="12.3"></circle><path d="M21.9 21.9l8.7 8.7"></path></symbol><symbol viewBox="0 0 32 32" id="icon-search-filled"><path d="M31.3 29.9l-7.8-7.8c2.1-2.3 3.3-5.4 3.3-8.8C26.8 6 20.8 0 13.5 0 6.2 0 .2 6 .2 13.3c0 7.3 6 13.3 13.3 13.3 3.3 0 6.2-1.2 8.6-3.1l7.8 7.8c.2.2.5.3.7.3s.5-.1.7-.3c.4-.4.4-1 0-1.4z"></path></symbol><symbol viewBox="0 0 32 32" id="icon-select"><g fill-rule="evenodd" clip-rule="evenodd"><path d="M8.5 8.5h15L16 1zM8.5 23.5h15L16 31z"></path></g></symbol><symbol viewBox="0 0 32 32" id="icon-settings"><g fill-rule="evenodd" clip-rule="evenodd"><circle cx="16" cy="16" r="4.3"></circle><path d="M24.2 24.4c-1.4 1.3-3.1 2.3-5 2.9v2c0 1-.7 1.7-1.6 1.7h-3.2c-.9 0-1.6-.8-1.6-1.7v-2c-1.9-.5-3.6-1.5-5-2.9L5.2 26c-.8.5-1.9.2-2.3-.5l-1.6-2.8c-.4-.8-.1-1.8.7-2.3l2.7-1.6c-.3-.9-.4-1.8-.4-2.8 0-1 .1-2 .4-2.9L2 11.6c-.8-.5-1.1-1.5-.7-2.3l1.6-2.8c.4-.8 1.5-1 2.3-.5l2.7 1.5c1.4-1.3 3.1-2.3 5-2.9v-2c0-1 .7-1.7 1.6-1.7h3.2c.9 0 1.6.8 1.6 1.7v2c1.9.5 3.6 1.5 5 2.9L27 6c.8-.5 1.9-.2 2.3.5l1.6 2.8c.4.8.1 1.8-.7 2.3l-2.7 1.5c.2.9.4 1.9.4 2.9s-.1 2-.4 2.9l2.7 1.5c.8.5 1.1 1.5.7 2.3l-1.6 2.8c-.4.8-1.5 1-2.3.5l-2.8-1.6z"></path></g></symbol><symbol viewBox="0 0 32 32" id="icon-settings-filled"><circle cx="16" cy="16" r="3.3"></circle><path d="M30.7 19.5l-2-1.1c.2-.7.2-1.5.2-2.4 0-.8-.1-1.6-.3-2.4l2.1-1.2c1.2-.8 1.7-2.3 1-3.6L30.2 6c-.3-.6-.9-1-1.6-1.2-.7-.2-1.5-.1-2.1.3l-2.1 1.1c-1.2-1.1-2.6-1.9-4.2-2.4V2.6c0-1.5-1.2-2.7-2.6-2.7h-3.2c-1.5 0-2.6 1.2-2.6 2.7v1.3c-1.4.6-2.8 1.4-4 2.4l-2-1.1c-.7-.5-1.5-.6-2.3-.4C2.8 5 2.3 5.5 2 6L.4 8.9c-.6 1.3-.2 2.8 1.1 3.6l2 1.1c-.2.7-.2 1.5-.2 2.4 0 .9.1 1.6.2 2.3l-2.1 1.2c-1.2.8-1.7 2.3-1 3.6L2 26c.3.6.9 1 1.6 1.2.7.2 1.5.1 2.1-.3l1.9-1.2c1.2 1.1 2.6 1.9 4.1 2.4v1.3c0 1.5 1.2 2.7 2.6 2.7h3.2c1.5 0 2.6-1.2 2.6-2.7V28c1.5-.6 2.9-1.4 4.1-2.4l2.1 1.2c.7.4 1.5.5 2.2.3.7-.2 1.2-.6 1.5-1.2l1.6-2.8c.8-1.2.4-2.8-.9-3.6zM16 21.3c-2.9 0-5.3-2.4-5.3-5.3s2.4-5.3 5.3-5.3 5.3 2.4 5.3 5.3-2.4 5.3-5.3 5.3z"></path></symbol><symbol viewBox="0 0 32 32" id="icon-tick"><path d="M2 17.3l9.3 10.1L30 4.6"></path></symbol><symbol viewBox="0 0 32 32" id="icon-trash"><path fill-rule="evenodd" clip-rule="evenodd" d="M26.7 9.6H5.3c-.8 0-1.5-.7-1.5-1.5V6.6c0-.8.7-1.5 1.5-1.5h21.5c.8 0 1.5.7 1.5 1.5v1.5c-.1.8-.7 1.5-1.6 1.5zM11.6 5.1V2.5c0-.8.7-1.5 1.5-1.5h5.8c.8 0 1.5.7 1.5 1.5v2.6M25.7 9.6v19c0 1.3-1.1 2.4-2.4 2.4H8.7c-1.3 0-2.4-1.1-2.4-2.4v-19"></path><path d="M20.9 14.2v13.6M16 14.2v13.6M11.1 14.2v13.6"></path></symbol><symbol viewBox="0 0 32 32" id="icon-upload"><path d="M16 21.6V2.9M8.5 12.3L16 2.9l7.5 9.4M1 19.7v9.4h30v-9.4"></path></symbol><symbol viewBox="0 0 32 32" id="icon-user"><circle cx="16" cy="13.1" r="5.8"></circle><circle cx="16" cy="16" r="15"></circle><path d="M5.7 26.9c2.8-2.1 6.4-3.3 10.3-3.3 3.9 0 7.5 1.2 10.3 3.3"></path></symbol>

<symbol  id="Capa_1-filter_icon" data-name="Capa 1" viewBox="0 0 20 20" style="&#10;    background: #000;&#10;"><defs><style>.cls-1{fill:#fff;}.cls-2{fill:#2c3bc6;opacity:0;}</style></defs><title>filter_icon</title><path class="cls-1" d="M10.24,10.6h8.84a.54.54,0,1,0,0-1.08H10.24a2.74,2.74,0,0,0-5.38,0H.92a.54.54,0,0,0,0,1.08H4.86a2.74,2.74,0,0,0,5.38,0Zm-4.35-.54a1.66,1.66,0,1,1,1.66,1.66A1.66,1.66,0,0,1,5.89,10.06Z"/><path class="cls-1" d="M14.78,4h4.3a.54.54,0,1,0,0-1.08h-4.3a2.75,2.75,0,0,0-5.39,0H.92A.54.54,0,0,0,.92,4H9.4a2.74,2.74,0,0,0,5.38,0Zm-4.36-.54A1.67,1.67,0,1,1,12.09,5.1,1.66,1.66,0,0,1,10.42,3.43Z"/><path class="cls-1" d="M14.78,17.18h4.3a.54.54,0,1,0,0-1.08h-4.3a2.75,2.75,0,0,0-5.39,0H.92a.54.54,0,1,0,0,1.08H9.4a2.74,2.74,0,0,0,5.38,0Zm-4.36-.54a1.67,1.67,0,1,1,1.67,1.67A1.67,1.67,0,0,1,10.42,16.64Z"/></symbol>

<symbol  id="Capa_2-arrow_next" data-name="Capa 2" viewBox="0 0 20 20"><defs><style>.cls-1{fill:#aaa;}.cls-2{fill:#2c3bc6;opacity:0;}</style></defs><title>arrow_next</title><g id="chevron-right"><polygon class="cls-1" points="7.23 2.85 5.55 4.54 11.08 10.08 5.55 15.61 7.23 17.3 14.45 10.08 7.23 2.85"/></g></symbol>

<symbol id="Capa_3-arrow_next_enable" viewBox="0 0 20 20"><defs><style>.cls-1{fill:#aaa;}.cls-2{fill:#2c3bc6;opacity:0;}</style></defs><title>arrow_next_enable</title>
<g id="chevron-right"><polygon class="cls-1" points="5.55 10 12.77 17.22 14.45 15.54 8.92 10 14.45 4.46 12.77 2.78 5.55 10"/></g></symbol>

<symbol id="Capa_4-close_icon" viewBox="0 0 20 20"><defs><style>.cls-1,.cls-2{fill:#999;}.cls-2{opacity:0;}</style></defs><title>close_icon</title><g id="close"><polygon class="cls-1" points="16.7 4.98 15.36 3.64 10 9 4.64 3.64 3.3 4.98 8.66 10.34 3.3 15.69 4.64 17.03 10 11.68 15.36 17.03 16.7 15.69 11.34 10.34 16.7 4.98"/></g></symbol>


<symbol id="Capa_5-Artboard_24" viewBox="0 0 20 20"><defs><style>.cls-1{fill:#444;}.cls-2{fill:#999;opacity:0;}</style></defs><title>Artboard 24</title><polygon class="cls-1" points="10 12.43 5.99 7.57 14.02 7.57 10 12.43"/></symbol>

<symbol id="Capa_6-Artboard_23" viewBox="0 0 20 20"><defs><style>.cls-1{fill:#444;}.cls-2{fill:#999;opacity:0;}</style></defs><title>Artboard 23</title><polygon class="cls-1" points="10 7.57 5.99 12.43 14.02 12.43 10 7.57"/></symbol>

<symbol id="Capa_7_drop_down_gray_down"  viewBox="0 0 20 20"><defs><style>.cls-1,.cls-2{fill:#999;}.cls-2{opacity:0;}</style></defs><title>drop_down_gray_down</title><polygon class="cls-1" points="10 12.43 5.99 7.57 14.02 7.57 10 12.43"/></symbol>

<symbol id="Capa_8-Artboard_19"  viewBox="0 0 20 20"><defs><style>.cls-1,.cls-2{fill:#999;}.cls-2{opacity:0;}</style></defs><title>Artboard 19</title><polygon class="cls-1" points="10 7.57 5.99 12.43 14.02 12.43 10 7.57"/></symbol>


<symbol id="Capa_9-dropdown"  viewBox="0 0 20 20"><defs><style>.cls-1{fill:#fff;}</style></defs><title>dropdown</title><g id="chevron-right"><polygon class="cls-1" points="11.04 12.81 15.61 8.25 14.54 7.18 11.04 10.69 7.54 7.18 6.48 8.25 11.04 12.81"/></g></symbol>

<symbol id="Capa_10-export_icon"  viewBox="0 0 20 20"><title>export_icon</title><path d="M13.76,9.31A.49.49,0,0,0,13.32,9h-2V2.69a.48.48,0,0,0-.49-.48h-2a.48.48,0,0,0-.49.48V9H6.5a.5.5,0,0,0-.45.28.47.47,0,0,0,.08.52l3.41,3.9a.48.48,0,0,0,.37.17.46.46,0,0,0,.36-.17l3.41-3.9A.47.47,0,0,0,13.76,9.31Z"/><path   d="M15.26,12.92v2.93H4.55V12.92H2.6v3.9a1,1,0,0,0,1,1H16.24a1,1,0,0,0,1-1v-3.9Z"/></symbol>

<!-- <symbol id="Capa_11-info_icon"  viewBox="0 0 20 20"><defs><style>.cls-1{fill:#6d00a7;}.cls-2{fill:#999;opacity:0;}</style></defs><title>info_icon</title><path class="cls-1" d="M10,2.22A7.78,7.78,0,1,0,17.78,10,7.79,7.79,0,0,0,10,2.22Zm0,14.14A6.36,6.36,0,1,1,16.36,10,6.36,6.36,0,0,1,10,16.36Z"/><path class="cls-1" d="M10,5.52a.95.95,0,1,0,.94,1A.95.95,0,0,0,10,5.52Z"/><path class="cls-1" d="M10,8.82a.71.71,0,0,0-.71.71v4.24a.71.71,0,0,0,1.42,0V9.53A.71.71,0,0,0,10,8.82Z"/></symbol> -->
<symbol id="Capa_11-info_icon"  viewBox="0 0 20 20"><defs><style>.cls-1{fill:#6d00a7;}.cls-2{fill:#999;opacity:0;}</style></defs><title>info_icon</title><path class="cls-1" d="M10,2.22A7.78,7.78,0,1,0,17.78,10,7.79,7.79,0,0,0,10,2.22Zm0,14.14A6.36,6.36,0,1,1,16.36,10,6.36,6.36,0,0,1,10,16.36Z"/><path class="cls-1" d="M10,5.52a.95.95,0,1,0,.94,1A.95.95,0,0,0,10,5.52Z"/><path class="cls-1" d="M10,8.82a.71.71,0,0,0-.71.71v4.24a.71.71,0,0,0,1.42,0V9.53A.71.71,0,0,0,10,8.82Z"/></symbol>

<symbol id="Capa_12-prev_icon_enable"  viewBox="0 0 20 20"><defs><style>.cls-1{fill:#6d00a7;}.cls-2{fill:#999;opacity:0;}</style></defs><title>prev_icon_enable</title><g id="chevron-right"><polygon class="cls-1" points="12.77 17.22 14.45 15.54 8.92 10 14.45 4.46 12.77 2.78 5.55 10 12.77 17.22"/></g></symbol>

<symbol id="Capa_13-prev_icon" viewBox="0 0 20 20"><defs><style>.cls-1{fill:#6d00a7;}.cls-2{fill:#999;opacity:0;}</style></defs><title>prev_icon</title><g id="chevron-right"><polygon class="cls-1" points="5.55 10.06 12.77 17.28 14.45 15.6 8.92 10.06 14.45 4.52 12.77 2.84 5.55 10.06"/></g></symbol>

<symbol id="Capa_14-search_icon"  data-name="Capa 8"  viewBox="0 0 20 20"><defs><style>.cls-1{fill:#a0a0a0;}.cls-2{fill:#999;opacity:0;}</style></defs><title>search_icon</title><path class="cls-1" d="M18.1,17.52l-4-4a7,7,0,1,0-.69.69l4,4a.54.54,0,0,0,.35.14.49.49,0,0,0,.35-.14A.5.5,0,0,0,18.1,17.52ZM2.74,8.91a6,6,0,1,1,6,6A6,6,0,0,1,2.74,8.91Z"/></symbol> 

 <symbol id="Group_63-save_icon" data-name="Group 63" viewBox="0 0 18 18" ><g transform="translate(-3 -3)">
    <path id="Path_18" data-name="Path 18" d="M12,12a3,3,0,1,0,3,3A2.946,2.946,0,0,0,12,12Zm-.1,5.2a2.3,2.3,0,0,1,0-4.6,2.3,2.3,0,1,1,0,4.6Z" fill="#fff"/>
    <path id="Path_19" data-name="Path 19" d="M17,3H5A2.006,2.006,0,0,0,3,5V19a2.006,2.006,0,0,0,2,2H19a2.006,2.006,0,0,0,2-2V7Zm2.6,16.5H4.3V4.4h12l3.3,3.4V19.5Z" fill="#fff"/>
    <rect id="Rectangle_96" data-name="Rectangle 96" width="9" height="2.7" transform="translate(6 6)" fill="#fff"/></g>
  </symbol>


   <symbol id = "hide" viewBox="0 0 21.585 17.266"> <g transform="translate(0 -49.023)">
    <g id="Group_60" data-name="Group 60" transform="translate(0 49.023)">
      <g id="Group_59" data-name="Group 59">
        <path id="Path_15" data-name="Path 15" d="M19.19,49.256a.794.794,0,0,0-1.123,0l-2.819,2.819c-3.493-1.586-7.219-1.2-10.774,1.123A18,18,0,0,0,.153,57.189a.8.8,0,0,0,.022.969,19.475,19.475,0,0,0,4.7,4.295l-2.48,2.48a.793.793,0,1,0,1.119,1.123L19.19,50.38A.8.8,0,0,0,19.19,49.256ZM8.83,58.493a2.062,2.062,0,0,1-.172-.837,2.135,2.135,0,0,1,2.973-1.965ZM12.8,54.524A3.716,3.716,0,0,0,7.667,59.66L6.033,61.294a16.682,16.682,0,0,1-4.211-3.652,16.966,16.966,0,0,1,3.519-3.119,9.243,9.243,0,0,1,8.7-1.238Z" transform="translate(0 -49.023)" fill="#fff"/>
      </g>
    </g>
    <g id="Group_62" data-name="Group 62" transform="translate(7.958 53.626)">
      <g id="Group_61" data-name="Group 61">
        <path id="Path_16" data-name="Path 16" d="M194.115,157.041a21.234,21.234,0,0,0-3.361-3.361.8.8,0,1,0-.982,1.251,18.941,18.941,0,0,1,2.7,2.621,17.381,17.381,0,0,1-2.907,2.7,9.8,9.8,0,0,1-7.942,2.066.792.792,0,1,0-.326,1.55,9.87,9.87,0,0,0,2.061.216,10.48,10.48,0,0,0,3.132-.489,13.984,13.984,0,0,0,4.048-2.092,18.193,18.193,0,0,0,3.6-3.493A.8.8,0,0,0,194.115,157.041Z" transform="translate(-180.663 -153.512)" fill="#fff"/>
      </g>
    </g>
    </symbol>

    <symbol id="switch_profile" data-name="switch profile" >
    <g transform="translate(-7038 -1058)">
    <path id="switch_profile" d="M7042.444,1066.428l-4.444,4.286,4.444,4.286v-3.214h7.778v-2.143h-7.778Zm8.555-4.143-4.444-4.286v3.214h-7.777v2.143h7.777v3.214Z"  fill="#555"/></g>
    </symbol>

    <symbol id="logout_icon" data-name="logout icon" >
    <g transform="translate(-7038.995 -1088)">
    <path id="logout_icon" d="M7039.721,1104a.726.726,0,0,1-.726-.728v-14.545a.726.726,0,0,1,.726-.728h6.285a.727.727,0,0,1,0,1.453h-5.561v13.092h5.561a.728.728,0,0,1,0,1.455Zm9.642-4.093a.727.727,0,0,1,0-1.027l2.146-2.153h-8.885a.728.728,0,0,1,0-1.455h8.885l-2.146-2.153a.726.726,0,0,1,1.025-1.029l3.385,3.394a.729.729,0,0,1,0,1.029l-3.385,3.394a.72.72,0,0,1-1.025,0Z" fill="#555"/></g>
    </symbol>

    <symbol id="Arrow-header" data-name="Arrow header" >
    <g transform="translate(-4.1 -5.65)">
    <path id="Arrow-header"  d="M10.1,12.15l-6-5.511L5.192,5.65,10.1,10.158,15.008,5.65l1.092.989Z" fill="#FFF"/></g>
    </symbol>

    <symbol id="Right-accept" viewBox="0 0 57.653 45.267" data-name="Right accept" >
    <g transform="translate(-88.015 -101.108)">
    <path id="Right-accept"  d="M108.073,146.375,88.015,126.317l7.782-7.782,12.276,12.276,29.813-29.7,7.782,7.782Z" fill="#6400aa"/></g>
    </symbol>

    <symbol id="Search-icon" viewBox="0 0 54.745 54.667" data-name="Search icon" >
    <g transform= "translate(-0.98 -1)">
    <path id="Search-icon" d="M55.725,47.389,37.841,29.5a19.722,19.722,0,1,0-8.278,8.278L47.447,55.667ZM4.963,20.524A15.619,15.619,0,1,1,20.582,36.143,15.619,15.619,0,0,1,4.963,20.524Zm30.691,12.3L50.336,47.506l-2.772,2.772L32.882,35.6a23.429,23.429,0,0,0,2.772-2.772Z" fill="#6400aa"/></g>
    </symbol>   

    <!-- for filter icon for detail reservation report site page> -->
     <symbol id="filter_column_icon" viewBox="0 0 14 14" data-name="Filter Column icon" >
      <g id="filter_column_icon" transform="translate(-11 -11)">
      <g id="Group_1070" data-name="Group 1070" transform="translate(10.999 11)">
        <g id="Group_1069" data-name="Group 1069" transform="translate(0 0)">
          <path id="Path_374" data-name="Path 374" d="M16.164,24.418v-4.98L11.1,11.909A.583.583,0,0,1,11.582,11H24.413a.584.584,0,0,1,.483.909l-5.064,7.529V22.53A.586.586,0,0,1,19.6,23l-2.5,1.889A.582.582,0,0,1,16.164,24.418ZM12.679,12.166l4.553,6.769a.576.576,0,0,1,.1.326V23.25l1.337-1.009v-2.98a.576.576,0,0,1,.1-.326l4.547-6.769H12.679Z" transform="translate(-10.999 -11)" fill="#6400aa"/>
        </g>
      </g>
    </g>
    </symbol>
     <!-- for notification icon for detail reservation report site page> -->
     <symbol id="notification" viewBox="0 0 25.127 27.5" data-name="Notification" >
      <g id="notification" transform="translate(-1113.873 -27)"><path d="M11.04,24h-.72A2.692,2.692,0,0,1,7.6,21.28v-.64H0a9.034,9.034,0,0,1,1.564-4.916A8.337,8.337,0,0,0,3.04,11.2c0-2.963.671-5.27,2-6.858A7.276,7.276,0,0,1,8.1,2.243c.154-.062.286-.115.381-.163C8.494,2,8.854,0,10.64,0,12.46,0,12.8,2.059,12.8,2.08c.1.048.228.1.381.163a7.276,7.276,0,0,1,3.063,2.1c1.325,1.587,2,3.895,2,6.858a8.5,8.5,0,0,0,1.487,4.572,9.055,9.055,0,0,1,1.553,4.867H13.76v.64A2.691,2.691,0,0,1,11.04,24Z" transform="translate(1114.373 30)" fill="#fff" stroke="#6400aa" stroke-miterlimit="10" stroke-width="1"/><circle cx="6" cy="6" r="6" transform="translate(1127 27)" fill="#ff0202"/></g>
    </symbol>


   </defs></svg>
