<svg width="24px" height="24px" viewBox="0 0 400 400" version="1.1" xmlns="http://www.w3.org/2000/svg" xmlns:xlink="http://www.w3.org/1999/xlink"><title>Read / Indigo / Read</title><desc>Created with Sketch.</desc><g id="Read-/-Indigo-/-Read" stroke="none" stroke-width="1" fill="none" fill-rule="evenodd"><path d="M201.5,104 C242.6278,104 283.471873,119.205395 318.709538,144.045992 C346.71282,163.786752 368,188.075627 368,199.5 C368,210.924373 346.71282,235.213248 318.709538,254.954008 C283.471873,279.794605 242.6278,295 201.5,295 C160.368582,295 119.520875,279.803352 84.2910334,254.977482 C56.2772862,235.236671 35,210.951622 35,199.5 C35,188.048378 56.2772862,163.763329 84.2910334,144.022518 C119.520875,119.196648 160.368582,104 201.5,104 Z M201.5,122 C164.432466,122 127.061368,135.903239 94.6595492,158.736249 C81.7075165,167.863326 70.4063786,177.911907 62.3001385,187.164047 C58.7980629,191.161177 56.0876484,194.80046 54.3678711,197.723487 C53.976044,198.389458 53.6546076,198.98679 53.4047807,199.5 C53.6546076,200.01321 53.976044,200.610542 54.3678711,201.276513 C56.0876484,204.19954 58.7980629,207.838823 62.3001385,211.835953 C70.4063786,221.088093 81.7075165,231.136674 94.6595492,240.263751 C127.061368,263.096761 164.432466,277 201.5,277 C238.561821,277 275.928917,263.089011 308.338451,240.242089 C321.289044,231.11264 332.591464,221.061756 340.701267,211.808393 C344.203811,207.811958 346.915165,204.173754 348.63568,201.252816 C349.022137,200.596723 349.340095,200.007481 349.588356,199.5 C349.340095,198.992519 349.022137,198.403277 348.63568,197.747184 C346.915165,194.826246 344.203811,191.188042 340.701267,187.191607 C332.591464,177.938244 321.289044,167.88736 308.338451,158.757911 C275.928917,135.910989 238.561821,122 201.5,122 Z M202.5,136 C215.791172,136 228.1286,140.083463 238.326155,147.06426 C237.722722,147.021693 237.113894,147 236.5,147 C222.416739,147 211,158.416739 211,172.5 C211,186.583261 222.416739,198 236.5,198 C249.23405,198 259.788023,188.665981 261.693342,176.466519 C264.474134,183.606994 266,191.375304 266,199.5 C266,234.570082 237.570082,263 202.5,263 C167.429918,263 139,234.570082 139,199.5 C139,164.429918 167.429918,136 202.5,136 Z" id="Read" fill="#5514B4" fill-rule="nonzero"></path></g></svg>